<svg xmlns="http://www.w3.org/2000/svg" width="50" height="29.661" viewBox="0 0 50 29.661">
  <path id="Union_3" data-name="Union 3" d="M-2221.627,29.661a2.119,2.119,0,0,1-2.119-2.119,2.119,2.119,0,0,1,2.119-2.119h30.508A2.119,2.119,0,0,1-2189,27.542a2.119,2.119,0,0,1-2.119,2.119Zm-15.254,0A2.119,2.119,0,0,1-2239,27.542a2.119,2.119,0,0,1,2.119-2.119h5.085a2.119,2.119,0,0,1,2.119,2.119,2.119,2.119,0,0,1-2.119,2.119Zm15.254-12.712a2.118,2.118,0,0,1-2.119-2.119,2.118,2.118,0,0,1,2.119-2.118h30.508A2.118,2.118,0,0,1-2189,14.83a2.119,2.119,0,0,1-2.119,2.119Zm-15.254,0A2.119,2.119,0,0,1-2239,14.83a2.119,2.119,0,0,1,2.119-2.118h5.085a2.118,2.118,0,0,1,2.119,2.118,2.118,2.118,0,0,1-2.119,2.119Zm15.254-12.711a2.119,2.119,0,0,1-2.119-2.119A2.119,2.119,0,0,1-2221.627,0h30.508A2.119,2.119,0,0,1-2189,2.119a2.119,2.119,0,0,1-2.119,2.119Zm-15.254,0A2.119,2.119,0,0,1-2239,2.119,2.119,2.119,0,0,1-2236.881,0h5.085a2.119,2.119,0,0,1,2.119,2.119,2.119,2.119,0,0,1-2.119,2.119Z" transform="translate(2239)" fill="#fff" opacity="0.2"/>
</svg>
