<svg xmlns="http://www.w3.org/2000/svg" width="48.952" height="50" viewBox="0 0 48.952 50">
  <path id="Union_2" data-name="Union 2" d="M-2209.44,50h-10.17a2.118,2.118,0,0,1-2.118-2.119V43.389a3.391,3.391,0,0,0-1.694-3,3.389,3.389,0,0,0-3.442.03l-3.873,2.245a2.117,2.117,0,0,1-2.889-.771l-5.085-8.8a2.044,2.044,0,0,1-.212-1.6,2.12,2.12,0,0,1,.983-1.288l3.9-2.245A3.389,3.389,0,0,0-2232.293,25a3.389,3.389,0,0,0-1.749-2.966l-3.89-2.246a2.119,2.119,0,0,1-.983-1.287,2.044,2.044,0,0,1,.212-1.6l5.085-8.8a2.119,2.119,0,0,1,2.89-.771l3.89,2.246a3.391,3.391,0,0,0,3.441.03,3.391,3.391,0,0,0,1.694-3V2.119A2.119,2.119,0,0,1-2219.593,0h10.169a2.119,2.119,0,0,1,2.119,2.119V6.61a3.387,3.387,0,0,0,1.695,2.966,3.477,3.477,0,0,0,3.389,0l3.907-2.246a2.118,2.118,0,0,1,2.889.771l5.085,8.8a2.118,2.118,0,0,1-.771,2.889l-3.881,2.246A3.39,3.39,0,0,0-2196.741,25a3.39,3.39,0,0,0,1.749,2.966l3.89,2.245a2.119,2.119,0,0,1,.771,2.89l-5.085,8.8a2.117,2.117,0,0,1-2.889.771l-3.881-2.245a3.474,3.474,0,0,0-3.39,0,3.393,3.393,0,0,0-1.695,2.966v4.492a2.117,2.117,0,0,1-.638,1.516,2.117,2.117,0,0,1-1.479.6Zm-11.821-13.34a7.628,7.628,0,0,1,3.787,6.729v2.373h5.932V43.389a7.628,7.628,0,0,1,3.813-6.665,7.628,7.628,0,0,1,7.679.03L-2198,37.94l2.958-5.084-2.052-1.187a7.626,7.626,0,0,1-3.866-6.635,7.627,7.627,0,0,1,3.866-6.635l2.052-1.186L-2198,12.127l-2.051,1.187a7.628,7.628,0,0,1-7.721.025,7.627,7.627,0,0,1-3.787-6.729V4.238h-5.932V6.61a7.627,7.627,0,0,1-3.813,6.664,7.626,7.626,0,0,1-7.678-.029l-2.052-1.187-2.957,5.085,2.051,1.186a7.627,7.627,0,0,1,3.866,6.635,7.625,7.625,0,0,1-3.866,6.635l-2.051,1.187,2.957,5.085,2.052-1.187a7.622,7.622,0,0,1,3.883-1.062A7.621,7.621,0,0,1-2221.261,36.66ZM-2222.568,25a8.051,8.051,0,0,1,8.051-8.051A8.051,8.051,0,0,1-2206.466,25a8.059,8.059,0,0,1-8.051,8.05A8.051,8.051,0,0,1-2222.568,25Zm4.238,0a3.814,3.814,0,0,0,3.813,3.813A3.814,3.814,0,0,0-2210.7,25a3.821,3.821,0,0,0-3.813-3.813A3.814,3.814,0,0,0-2218.331,25Z" transform="translate(2239)" fill="#ae00bb"/>
</svg>
