<svg xmlns="http://www.w3.org/2000/svg" width="22" height="22" viewBox="0 0 22 22">
  <path id="paper-plane" d="M3.983,16.419a1.222,1.222,0,0,1-.359-2.263l19.554-11A1.222,1.222,0,0,1,25,4.3L23.774,22.636a1.222,1.222,0,0,1-1.984.873L15.68,18.62a1.222,1.222,0,0,1-.33-1.5l2.444-4.889a1.223,1.223,0,1,1,2.188,1.093l-2,4,3.512,2.81L22.408,6.4,7.7,14.669l2.877.576a1.222,1.222,0,0,1,.965,1l.677,4.058.126-.208a1.222,1.222,0,0,1,2.095,1.256L12.6,24.4a1.221,1.221,0,0,1-2.252-.428l-1.084-6.5L3.983,16.42Z" transform="translate(-3 -3)" fill="#fff"/>
</svg>
