<svg xmlns="http://www.w3.org/2000/svg" width="40" height="32.052" viewBox="0 0 40 32.052">
  <path id="Union_5" data-name="Union 5" d="M-4462,40h-.042a1.693,1.693,0,0,1-.429-.072h0l-.016,0-.009,0-.007,0a1.7,1.7,0,0,1-.674-.412L-4477.5,25.18a1.7,1.7,0,0,1,0-2.4,1.7,1.7,0,0,1,2.4,0l11.43,11.455V1.695a1.7,1.7,0,0,1,1.7-1.695,1.7,1.7,0,0,1,1.7,1.695v32.54l11.437-11.455a1.7,1.7,0,0,1,2.4,0,1.7,1.7,0,0,1,0,2.4l-14.333,14.326a1.693,1.693,0,0,1-.734.43h0l-.014,0-.011,0-.007,0-.016,0h0a1.714,1.714,0,0,1-.329.049H-4462Z" transform="translate(40 4478) rotate(90)" fill="#fefeff"/>
</svg>
