<svg xmlns="http://www.w3.org/2000/svg" width="29.998" height="30" viewBox="0 0 29.998 30">
  <path id="Union_6" data-name="Union 6" d="M-2210.271-2121a1.27,1.27,0,0,1-.9-.371l-8.381-8.381a11.907,11.907,0,0,1-7.5,2.65A11.949,11.949,0,0,1-2239-2139.051,11.949,11.949,0,0,1-2227.051-2151a11.949,11.949,0,0,1,11.949,11.949,11.91,11.91,0,0,1-2.651,7.5l8.381,8.381a1.282,1.282,0,0,1,0,1.8,1.27,1.27,0,0,1-.9.371Zm-26.186-18.051a9.406,9.406,0,0,0,9.406,9.407,9.377,9.377,0,0,0,6.621-2.724l.031-.031.032-.031a9.377,9.377,0,0,0,2.724-6.62,9.417,9.417,0,0,0-9.407-9.406A9.406,9.406,0,0,0-2236.458-2139.051Z" transform="translate(2239 2151)" fill="#fff" opacity="0.4"/>
</svg>
